<?xml version="1.0" encoding="UTF-8" standalone="no"?>
<!-- Created with Inkscape (http://www.inkscape.org/) -->

<svg
   width="90.582687mm"
   height="111.68661mm"
   viewBox="0 0 90.582687 111.68661"
   version="1.1"
   id="svg5"
   inkscape:version="1.1 (c68e22c387, 2021-05-23)"
   sodipodi:docname="favicon.svg"
   xmlns:inkscape="http://www.inkscape.org/namespaces/inkscape"
   xmlns:sodipodi="http://sodipodi.sourceforge.net/DTD/sodipodi-0.dtd"
   xmlns="http://www.w3.org/2000/svg"
   xmlns:svg="http://www.w3.org/2000/svg">
  <sodipodi:namedview
     id="namedview7"
     pagecolor="#ffffff"
     bordercolor="#666666"
     borderopacity="1.0"
     inkscape:pageshadow="2"
     inkscape:pageopacity="0.0"
     inkscape:pagecheckerboard="0"
     inkscape:document-units="mm"
     showgrid="false"
     inkscape:zoom="0.46324355"
     inkscape:cx="-279.55057"
     inkscape:cy="188.88552"
     inkscape:window-width="1366"
     inkscape:window-height="705"
     inkscape:window-x="-8"
     inkscape:window-y="-8"
     inkscape:window-maximized="1"
     inkscape:current-layer="layer1" />
  <defs
     id="defs2" />
  <g
     inkscape:label="Layer 1"
     inkscape:groupmode="layer"
     id="layer1"
     transform="translate(-66.4642,-98.114743)">
    <path
       id="path1257"
       style="fill:#d40000;fill-opacity:1;stroke:#000000;stroke-width:6.00001;stroke-linejoin:round;stroke-opacity:1"
       d="m 131.21776,115.52347 c -3.95172,2.71958 -8.43214,4.79351 -12.0332,8.01719 -1.28724,1.15234 -3.22633,2.89051 -2.27728,5.01668 0.57867,1.29644 1.83069,2.17048 2.74604,3.25573 1.48179,1.16078 2.92438,2.37345 4.44539,3.48235 2.0902,1.52387 4.29916,2.88072 6.38355,4.41254 4.77843,3.51167 9.08324,6.86401 13.1026,11.25549 1.74971,1.9117 3.49546,3.87738 4.79663,6.1186 1.15115,1.98284 1.65348,4.27706 2.48023,6.41559 -0.0159,2.19864 0.43579,4.45102 -0.0476,6.59593 -1.06657,4.73274 -4.79695,9.87945 -7.8349,13.41315 -4.2142,4.90189 -7.36413,7.3753 -12.85052,10.80868 -1.48934,0.93202 -3.13293,1.59119 -4.69939,2.38679 -7.82622,3.61913 -16.11302,6.3295 -24.66588,7.55082 -1.277215,0.18239 -2.567403,0.25806 -3.851103,0.38708 0,0 -2.910578,2.16137 -2.910578,2.16137 v 0 c 1.316728,-0.143 2.640113,-0.2342 3.950181,-0.42899 8.65478,-1.28684 17.04837,-4.0258 24.98737,-7.66719 3.38252,-1.8524 6.86298,-3.53623 10.14757,-5.55718 5.3052,-3.2642 8.81257,-6.18393 12.8429,-10.91626 3.08313,-3.62015 6.83657,-8.82918 7.88286,-13.66573 0.47187,-2.18127 -0.0233,-4.46339 -0.035,-6.69508 -0.86718,-2.15242 -1.41437,-4.46338 -2.60155,-6.45725 -1.33511,-2.24232 -3.11556,-4.19999 -4.88568,-6.11759 -4.03921,-4.37575 -8.33417,-7.74678 -13.05498,-11.34005 -2.03306,-1.54748 -4.17004,-2.95525 -6.20169,-4.50457 -1.4657,-1.11774 -2.85761,-2.32906 -4.28641,-3.49359 -0.82512,-1.02934 -1.96121,-1.8731 -2.47536,-3.08801 -0.82663,-1.95329 1.09568,-3.63208 2.24773,-4.65514 3.63032,-3.22383 8.12061,-5.32121 12.11962,-8.00875 0,0 -3.42157,1.31739 -3.42157,1.31739 z m -13.52977,-14.4088 c -3.97836,0.92417 -7.96044,2.59009 -11.46148,4.6723 -7.635057,4.54085 -10.924677,6.72448 -16.675472,13.24401 -2.464157,2.79356 -4.553336,5.89672 -6.830004,8.84508 -7.25492,11.90319 -14.450759,25.06315 -13.087168,39.55607 0.752732,8.00038 2.31792,9.25237 6.035995,15.95294 1.646397,1.83857 2.988215,4.0042 4.939189,5.5157 3.306569,2.56175 8.544385,4.19294 12.706196,4.24904 2.188509,0.0295 4.379759,-0.39655 6.496659,-0.95259 5.781435,-1.51861 8.499685,-4.0039 13.705165,-7.35817 1.26045,-1.32499 2.65521,-2.53408 3.78135,-3.97497 2.8298,-3.62072 5.4089,-9.67308 3.42332,-14.2865 -0.34859,-0.80991 -1.01977,-1.43874 -1.52965,-2.15811 -0.81034,-0.47245 -1.56408,-1.05919 -2.43101,-1.41736 -2.66707,-1.1019 -5.67155,-1.14671 -8.5026,-1.17213 -0.70799,-0.006 -1.45649,0.24978 -2.12401,0.0138 -0.36559,-0.12927 0.73403,-0.25031 1.10105,-0.37547 -0.28306,0.30109 -1.2624,0.90005 -0.84916,0.90326 1.04453,0.008 1.98108,-0.68327 3.00568,-0.88649 1.57546,-0.31249 4.04876,-0.50194 5.63944,0.0636 2.02813,0.72109 2.6539,1.92289 3.96536,3.49501 1.66664,1.62629 1.61539,4.19284 2.91187,5.99799 0.92331,1.28557 2.22308,2.2536 3.33462,3.3804 0,0 3.03312,-1.85212 3.03312,-1.85212 v 0 c -1.05476,-1.10895 -2.29049,-2.07035 -3.16427,-3.32685 -1.28978,-1.8547 -1.28936,-4.42322 -2.91692,-6.11742 -1.34346,-1.64873 -2.01516,-2.93571 -4.10773,-3.73112 -0.86387,-0.32836 -1.81704,-0.39114 -2.74082,-0.41805 -4.34839,-0.12667 -8.02192,1.87655 -11.71441,3.96417 -0.18834,0.37955 -0.91495,0.89977 -0.565,1.13866 0.59415,0.4056 1.43819,-0.0459 2.15757,-0.0515 3.75047,-0.029 7.53109,0.0982 10.735,2.30159 0.49264,0.67099 1.14116,1.25171 1.47791,2.01297 1.97854,4.4726 -0.5846,10.36971 -3.35123,13.86 -1.12018,1.41318 -2.50639,2.59335 -3.75959,3.89003 -0.66904,0.57206 -1.22676,1.30884 -2.00711,1.71618 -5.87696,3.0677 -12.234604,4.43504 -18.712503,2.37607 -2.181268,-0.6933 -4.35211,-1.61485 -6.180207,-2.99205 -1.956448,-1.47388 -3.315308,-3.60677 -4.972962,-5.41016 -3.734626,-6.61256 -5.287942,-7.81444 -6.062422,-15.74531 -1.007113,-10.31307 2.510041,-20.28141 7.145824,-29.29092 1.772023,-3.44387 3.916709,-6.68286 5.875065,-10.02429 2.31766,-2.95045 4.443161,-6.06253 6.952985,-8.85134 1.621669,-1.80194 7.96692,-8.01112 11.20195,-9.96072 3.31222,-1.99611 7.1582,-3.59929 10.95536,-4.41484 0,0 3.16505,-2.38038 3.16505,-2.38038 z" />
  </g>
</svg>
